RELEASE TITLE:
          ======================================

MAMA 2013 1080P BRRIP DUAL AUDIO [HIN 5.1-ENG 5.1] TARIQ QURESHI
                     =================================================



                   General:
                                   ===============
Format                                   : Matroska
Format version                           : Version 4 / Version 2
File size                                : 1.97 GiB
Duration                                 : 1h 40mn
Overall bit rate                         : 2 811 Kbps
Encoded date                             : UTC 2013-05-31 09:13:12
Movie name                               : MAMA 2013 1080P BRRIP DUAL AUDIO [HIN 5.1-ENG 5.1] TARIQ QURESHI
=======================================================================================
                    VIDEO:
                              ===============

ID                                       : 1
Format                                   : AVC
Format/Info                              : Advanced Video Codec
Format profile                           : High@L4.0
Format settings, CABAC                   : Yes
Format settings, ReFrames                : 2 frames
Codec ID                                 : V_MPEG4/ISO/AVC
Duration                                 : 1h 40mn
Bit rate                                 : 2 169 Kbps
Width                                    : 1 920 pixels
Height                                   : 1 040 pixels
Display aspect ratio                     : 1.85:1
Frame rate mode                          : Constant
Frame rate                               : 23.976 fps
Color space                              : YUV
Chroma subsampling                       : 4:2:0
Bit depth                                : 8 bits
Default                                  : Yes
Forced                                   : No
=====================================================================================
AUDIO:1
          ================

ID                                       : 2
Format                                   : AC-3
Format/Info                              : Audio Coding 3
Mode extension                           : CM (complete main)
Format settings, Endianness              : Big
Codec ID                                 : A_AC3
Duration                                 : 1h 40mn
Bit rate mode                            : Constant
Bit rate                                 : 512 Kbps
Channel(s)                               : 6 channels
Channel positions                        : Front: L C R, Side: L R, LFE
Sampling rate                            : 48.0 KHz
Bit depth                                : 16 bits
Compression mode                         : Lossy
Stream size                              : 367 MiB (18%)
Title                                    : 5.1 TARIQ QURESHI
Language                                 : English
Default                                  : No
Forced                                   : No[/color][/size]
===================================================================================
AUDIO:2
            ================

ID                                       : 3
Format                                   : AC-3
Format/Info                              : Audio Coding 3
Mode extension                           : CM (complete main)
Format settings, Endianness              : Big
Codec ID                                 : A_AC3
Duration                                 : 1h 40mn
Bit rate mode                            : Constant
Bit rate                                 : 128 Kbps
Channel(s)                               : 6 channels
Channel positions                        : Front: L C R, Side: L R, LFE
Sampling rate                            : 48.0 KHz
Bit depth                                : 16 bits
Compression mode                         : Lossy
Stream size                              : 91.6 MiB (5%)
Title                                    : 5.1 TARIQ QURESHI
Language                                 : Hindi
Default                                  : Yes
Forced                                   : No

===================================================================================
SCREEN SHOT
            ========================= 
http://i.imgur.com/4nkZYQO.png 
http://i.imgur.com/qAWrkr9.jpg 
http://i.imgur.com/4nkZYQO.png

==================================================================================

